# xmcd
#
# Track frame offsets:
#  150
#  17978
#  37833
#  51326
#  70206
#  97955
#  119103
#  131487
#  151302
#  167060
#  182382
#  193692
#  213851
#  236454
#  255700
#  268981
#  287405
#  303247
#
# Disc length: 4266 seconds
#
# Revision: 1
# Processed by: cddbd v1.5.1PL0 Copyright (c) Steve Scherf et al.
# Submitted via: Collectorz.com_Music_Collector 6.9
#
DISCID=fb10a812
DTITLE=Various Artist - Young Rider Blues
DYEAR=2003
DGENRE=Blues
TTITLE0=Ash Grunwald - Just Be Yourself
TTITLE1=Rynsaardt - Bush Dwellin' Man
TTITLE2=Trevor's House - Blessin' In Disguise
TTITLE3=Pete Cornelius - Gotta Live
TTITLE4=Ray Beadle - The Good Life
TTITLE5=Darren Jack - Reconsider Baby
TTITLE6=Lloyd Spiegel - Life Is A Gamble
TTITLE7=Mia Dyson - Roll On
TTITLE8=Soul Chain - What Fuels Your Fire
TTITLE9=Simon Cox - Fool Too Long
TTITLE10=Adam Pringle Band - Red Rocket
TTITLE11=The Vegas Kings - Ain't Got No Soul
TTITLE12=Maxim Stockard - Package Deal
TTITLE13=The Cosh - Who We Are
TTITLE14=Paul O'Brien - West Coast Highway
TTITLE15=The Simon Kinny Lewis Band - The Blues Had A Baby
TTITLE16=Zed Orange - Nothing To Lose
TTITLE17=The Dynamite Aitken Brothers - Sweet Woman
EXTD=
EXTT0=
EXTT1=
EXTT2=
EXTT3=
EXTT4=
EXTT5=
EXTT6=
EXTT7=
EXTT8=
EXTT9=
EXTT10=
EXTT11=
EXTT12=
EXTT13=
EXTT14=
EXTT15=
EXTT16=
EXTT17=
PLAYORDER=
